<svg width="18" height="18" viewBox="0 0 18 18" fill="none" xmlns="http://www.w3.org/2000/svg">
<path d="M16.1222 6.87857L13.2129 3.96932C13.0715 3.8327 12.882 3.75711 12.6854 3.75882C12.4887 3.76053 12.3006 3.8394 12.1616 3.97846C12.0225 4.11752 11.9436 4.30562 11.9419 4.50227C11.9402 4.69892 12.0158 4.88837 12.1524 5.02982L15.0617 7.93907C15.1481 8.02722 15.2237 8.12542 15.2867 8.23157C15.2754 8.23157 15.2664 8.22557 15.2552 8.22557L5.49219 8.24957C5.29328 8.24957 5.10251 8.32859 4.96186 8.46924C4.82121 8.60989 4.74219 8.80066 4.74219 8.99957C4.74219 9.19848 4.82121 9.38925 4.96186 9.5299C5.10251 9.67055 5.29328 9.74957 5.49219 9.74957L15.2507 9.72557C15.2717 9.72557 15.2889 9.71507 15.3092 9.71357C15.2427 9.84044 15.1583 9.95713 15.0587 10.0601L12.1494 12.9693C12.0778 13.0385 12.0207 13.1213 11.9814 13.2128C11.9421 13.3043 11.9214 13.4027 11.9205 13.5023C11.9196 13.6019 11.9386 13.7006 11.9763 13.7928C12.014 13.885 12.0697 13.9687 12.1401 14.0391C12.2106 14.1095 12.2943 14.1652 12.3865 14.2029C12.4786 14.2406 12.5774 14.2596 12.677 14.2588C12.7766 14.2579 12.875 14.2372 12.9665 14.1979C13.058 14.1586 13.1408 14.1015 13.2099 14.0298L16.1192 11.1206C16.6816 10.558 16.9975 9.79506 16.9975 8.99957C16.9975 8.20408 16.6816 7.44116 16.1192 6.87857H16.1222Z" fill="currentColor"/>
<path d="M6.25 16.5H4.75C4.15326 16.5 3.58097 16.2629 3.15901 15.841C2.73705 15.419 2.5 14.8467 2.5 14.25V3.75C2.5 3.15326 2.73705 2.58097 3.15901 2.15901C3.58097 1.73705 4.15326 1.5 4.75 1.5H6.25C6.44891 1.5 6.63968 1.42098 6.78033 1.28033C6.92098 1.13968 7 0.948912 7 0.75C7 0.551088 6.92098 0.360322 6.78033 0.21967C6.63968 0.0790176 6.44891 0 6.25 0L4.75 0C3.7558 0.00119089 2.80267 0.396661 2.09966 1.09966C1.39666 1.80267 1.00119 2.7558 1 3.75L1 14.25C1.00119 15.2442 1.39666 16.1973 2.09966 16.9003C2.80267 17.6033 3.7558 17.9988 4.75 18H6.25C6.44891 18 6.63968 17.921 6.78033 17.7803C6.92098 17.6397 7 17.4489 7 17.25C7 17.0511 6.92098 16.8603 6.78033 16.7197C6.63968 16.579 6.44891 16.5 6.25 16.5Z" fill="currentColor"/>
</svg>
